<svg xmlns="http://www.w3.org/2000/svg" viewBox="0 0 89.471 89.471"><ellipse cx="57.151" cy="19.097" rx="1.492" ry=".744" fill="#0979c6"/><path d="M51.156 61.531c-2.022 1.167-3.504 2.376-4.606 3.597a3.87 3.87 0 00-1.686-.447c.193-1.6.82-3.471 2.316-5.909h-4.907c-.344 2.902-.122 4.924.369 6.503a3.93 3.93 0 00-1.245 1.256c-1.285-.934-2.584-2.251-3.93-4.101-.673 1.507-1.346 2.516-2.473 3.382 2.326 1.739 4.198 2.573 5.819 2.942.025.612.186 1.177.462 1.693-1.485.63-3.432 1.016-6.281.938 1.36 1.732 2.58 3.003 3.314 4.27 2.018-1.16 3.504-2.369 4.602-3.593a3.833 3.833 0 001.686.451c-.193 1.596-.82 3.464-2.319 5.909h4.91c.344-2.902.118-4.921-.372-6.503a3.96 3.96 0 001.245-1.256c1.285.934 2.588 2.251 3.93 4.101.676-1.507 1.349-2.516 2.473-3.382-2.326-1.739-4.198-2.573-5.819-2.942a3.873 3.873 0 00-.462-1.693c1.485-.63 3.432-1.016 6.281-.938-1.356-1.733-2.573-3-3.307-4.278zm-6.42 8.292a1.228 1.228 0 110-2.456c.676 0 1.231.551 1.231 1.228a1.237 1.237 0 01-1.231 1.228z" fill="#0979c6"/><path d="M67.361 41.765l2.466-28.355c.14-1.636-1.084-2.97-2.727-2.97h-.691l.301-4.488C66.925 2.677 64.419 0 61.138 0H28.334c-3.282 0-5.787 2.677-5.572 5.952l.301 4.488h-.694c-1.643 0-2.867 1.335-2.727 2.97l2.469 28.355c.14 1.632.14 4.309 0 5.941l-2.469 28.355c-.14 1.636 1.084 2.97 2.727 2.97h.694l-.301 4.488c-.215 3.275 2.29 5.952 5.572 5.952h32.804c3.282 0 5.787-2.677 5.576-5.952l-.301-4.488h.691c1.643 0 2.867-1.335 2.727-2.97l-2.466-28.355c-.143-1.632-.143-4.309-.004-5.941zM58.643 3.343a2.238 2.238 0 11-.001 4.475 2.238 2.238 0 01.001-4.475zm-5.873.536a1.697 1.697 0 110 3.392c-.941 0-1.696-.755-1.696-1.696s.755-1.696 1.696-1.696zm-8.034 76.645c-6.589 0-11.928-5.343-11.928-11.928s5.34-11.928 11.928-11.928 11.928 5.343 11.928 11.928-5.34 11.928-11.928 11.928zm-5.218-27.306v-23.86a.743.743 0 111.488 0v23.86a.746.746 0 01-.744.744.746.746 0 01-.744-.744zm8.947 0v-23.86a.743.743 0 111.488 0v23.86a.743.743 0 11-1.488 0zm12.673-31.315H28.334v-8.947h32.804v8.947z" fill="#0979c6"/></svg>