<svg xmlns="http://www.w3.org/2000/svg" viewBox="0 0 109.602 109.602"><ellipse cx="99.549" cy="28.919" rx="1.51" ry=".752" fill="#85bc23"/><path d="M106.585 17.166H67.443a3.021 3.021 0 00-3.013 3.01V31.07h6.027v-8.353h33.119v9.029H75.163v8.278h28.412v1.507H75.163v7.526h28.412v1.503H75.163v34.189H64.437v4.67a3.021 3.021 0 003.01 3.01h39.145a3.021 3.021 0 003.01-3.01V20.172a3.03 3.03 0 00-3.017-3.006zM87.009 72.527a4.517 4.517 0 110-9.034 4.517 4.517 0 110 9.034z" fill="#85bc23"/><path fill="#85bc23" d="M0 34.652h71.577v46.525H0zm25.052 50.627l-7.158 7.157h35.789l-7.158-7.157z"/></svg>