<svg xmlns="http://www.w3.org/2000/svg" viewBox="0 0 89.471 89.471"><g fill="#85bc23"><path d="M57.305 38.015c5.433-2.312 12.515-3.722 22.897-3.429-4.971-6.32-9.416-10.933-12.079-15.568-7.362 4.245-12.755 8.639-16.771 13.091a14.192 14.192 0 00-6.131-1.643c.691-5.816 2.974-12.63 8.46-21.527H35.787c-1.249 10.583-.433 17.934 1.353 23.696a14.336 14.336 0 00-4.542 4.574c-4.685-3.411-9.423-8.206-14.319-14.97-2.455 5.483-4.892 9.169-9.015 12.333 8.485 6.335 15.292 9.359 21.208 10.715.089 2.23.698 4.298 1.689 6.152-5.433 2.312-12.515 3.718-22.897 3.425 4.967 6.32 9.412 10.933 12.082 15.568 7.355-4.245 12.751-8.632 16.763-13.084 1.85.97 3.919 1.568 6.138 1.643-.691 5.816-2.974 12.63-8.46 21.527h17.894c1.253-10.583.433-17.934-1.356-23.696a14.336 14.336 0 004.545-4.574c4.688 3.407 9.43 8.206 14.323 14.96 2.455-5.479 4.889-9.169 9.015-12.329-8.485-6.335-15.289-9.355-21.212-10.715a14.243 14.243 0 00-1.691-6.149zM44.736 49.209a4.478 4.478 0 01-4.474-4.474 4.478 4.478 0 014.474-4.474 4.48 4.48 0 014.474 4.474 4.482 4.482 0 01-4.474 4.474z"/><path d="M82.314 0H7.158C3.221 0 0 3.221 0 7.158v75.156c0 3.937 3.221 7.158 7.158 7.158h75.156c3.937 0 7.158-3.221 7.158-7.158V7.158C89.471 3.221 86.25 0 82.314 0zM6.263 3.579c1.485 0 2.684 1.199 2.684 2.684S7.748 8.947 6.263 8.947 3.579 7.748 3.579 6.263s1.199-2.684 2.684-2.684zm0 82.313a2.68 2.68 0 01-2.684-2.684c0-1.485 1.199-2.684 2.684-2.684s2.684 1.199 2.684 2.684a2.68 2.68 0 01-2.684 2.684zm38.473-1.789c-21.724 0-39.367-17.612-39.367-39.367S23.012 5.368 44.736 5.368 84.103 22.98 84.103 44.736 66.459 84.103 44.736 84.103zm38.472 1.789a2.68 2.68 0 01-2.684-2.684 2.68 2.68 0 012.684-2.684 2.68 2.68 0 012.684 2.684 2.68 2.68 0 01-2.684 2.684zm0-76.945c-1.485 0-2.684-1.199-2.684-2.684s1.199-2.684 2.684-2.684 2.684 1.199 2.684 2.684-1.198 2.684-2.684 2.684z"/></g></svg>