<svg width="32" height="32" fill="none" xmlns="http://www.w3.org/2000/svg"><circle cx="16" cy="16" r="15" stroke="#0979C6" stroke-width="2"/><path d="M20.27 12.687a.957.957 0 100-1.914.957.957 0 000 1.914z" fill="#0979C6"/><path fill-rule="evenodd" clip-rule="evenodd" d="M16.002 11.898A4.095 4.095 0 0011.9 16a4.095 4.095 0 004.1 4.102A4.095 4.095 0 0020.104 16a4.095 4.095 0 00-4.101-4.102zm0 6.769A2.672 2.672 0 0113.335 16a2.67 2.67 0 012.667-2.667A2.67 2.67 0 0118.668 16c0 1.47-1.2 2.667-2.666 2.667z" fill="#0979C6"/><path fill-rule="evenodd" clip-rule="evenodd" d="M23.944 12.701c-.06-1.282-.354-2.417-1.292-3.352-.936-.936-2.07-1.229-3.352-1.293-1.32-.075-5.28-.075-6.6 0-1.278.06-2.413.354-3.352 1.29-.938.934-1.228 2.07-1.292 3.351-.075 1.322-.075 5.28 0 6.602.06 1.282.354 2.417 1.292 3.352.94.936 2.07 1.229 3.352 1.293 1.32.075 5.28.075 6.6 0 1.281-.06 2.416-.354 3.352-1.293.935-.935 1.227-2.07 1.292-3.352.075-1.321.075-5.277 0-6.598zm-1.706 8.015a2.7 2.7 0 01-1.521 1.521c-1.604.637-3.577.309-5.272.325-1.322.01-2.898.172-4.158-.325a2.7 2.7 0 01-1.521-1.52c-.398-1.005-.33-3.326-.322-4.548.009-1.552-.258-3.415.322-4.885a2.7 2.7 0 011.52-1.521c1.054-.418 2.87-.322 4.716-.322 1.845 0 3.274-.247 4.715.322a2.7 2.7 0 011.52 1.52c.567 1.43.322 3.2.322 4.717 0 1.164.096 3.667-.321 4.716z" fill="#0979C6"/></svg>