<svg xmlns="http://www.w3.org/2000/svg" viewBox="0 0 85.348 85.348"><g fill="#0979c6"><path d="M77.45 57.691V16.595a3.173 3.173 0 00-3.164-3.16h-63.22a3.171 3.171 0 00-3.167 3.16v41.096L0 67.175a4.74 4.74 0 004.738 4.738H80.61a4.741 4.741 0 004.738-4.738l-7.898-9.484zM49.002 70.339H36.358c-.44 0-.791-.351-.791-.791s.351-.791.791-.791h12.644c.433 0 .791.351.791.791a.799.799 0 01-.791.791zm-19.358-3.16l2.412-2.895h21.237l2.412 2.895H29.644zm43.354-15.078a2.762 2.762 0 01-2.756 2.759H15.106a2.769 2.769 0 01-2.756-2.759V19.032a2.762 2.762 0 012.756-2.759h55.136a2.767 2.767 0 012.756 2.759v33.069z"/><path d="M51.578 32.542l2.734-4.098-3.035-3.046-4.101 2.738c-.433-.222-.913-.365-1.378-.523l-.977-4.885h-4.295l-.977 4.885c-.469.165-.945.304-1.378.523l-4.101-2.738-3.035 3.038 2.734 4.101c-.225.447-.412.909-.573 1.392l-4.839.977v4.291l4.839.97c.161.487.347.948.573 1.396l-2.738 4.101 3.038 3.035 4.101-2.734c.433.218.909.358 1.378.523l.977 4.885h4.295l.973-4.885c.465-.161.948-.301 1.378-.523l4.101 2.734 3.038-3.035-2.738-4.101c.229-.447.412-.909.573-1.396l4.839-.97.004-4.291-4.842-.97a8.542 8.542 0 00-.568-1.394zm-8.904 9.52a5.014 5.014 0 01-5.01-5.01 5.01 5.01 0 0110.02 0 5.012 5.012 0 01-5.01 5.01z"/></g></svg>