<svg width="20" height="20" fill="none" xmlns="http://www.w3.org/2000/svg"><path d="M19.602 14.722c-.054-.162-.396-.4-1.026-.715a29.9 29.9 0 00-.728-.405c-.315-.17-.6-.328-.857-.472a28.584 28.584 0 01-.722-.418 17.559 17.559 0 00-.337-.236 3.786 3.786 0 00-.48-.29.882.882 0 00-.384-.095c-.18 0-.405.128-.675.385-.27.256-.517.535-.742.836-.225.302-.463.58-.715.837-.252.257-.459.385-.62.385a.92.92 0 01-.304-.068 3.138 3.138 0 01-.277-.114 5.04 5.04 0 01-.324-.19 8.285 8.285 0 00-.256-.155c-1.233-.684-2.29-1.466-3.172-2.348-.881-.882-1.664-1.939-2.348-3.171a7.809 7.809 0 00-.155-.257 4.862 4.862 0 01-.189-.324 2.923 2.923 0 01-.114-.276.913.913 0 01-.068-.304c0-.162.128-.369.385-.62.256-.252.535-.49.836-.716a6.5 6.5 0 00.837-.742c.256-.27.385-.494.385-.674a.881.881 0 00-.095-.385 3.75 3.75 0 00-.29-.48c-.13-.188-.21-.3-.236-.337a29.615 29.615 0 01-.418-.721 68.061 68.061 0 01-.473-.857c-.17-.315-.306-.558-.405-.729C5.321.436 5.082.094 4.92.041A.756.756 0 004.637 0c-.243 0-.56.045-.952.135-.391.09-.699.184-.924.283-.45.19-.927.738-1.43 1.647-.46.845-.689 1.682-.689 2.51a5.133 5.133 0 00.216 1.484c.081.288.147.502.196.64.05.14.141.39.276.75.135.36.216.58.243.661a12.28 12.28 0 001.12 2.362c.71 1.151 1.68 2.341 2.908 3.57 1.228 1.227 2.418 2.197 3.57 2.907.692.432 1.48.805 2.361 1.12.081.027.302.108.661.244.36.134.61.227.75.276.139.05.353.115.64.196.288.081.547.137.776.17.23.03.466.046.709.046.827 0 1.664-.23 2.51-.688.908-.504 1.457-.98 1.646-1.43.1-.226.193-.534.283-.925.09-.391.135-.708.135-.951a.753.753 0 00-.04-.285z" fill="#0979C6"/></svg>