<svg xmlns="http://www.w3.org/2000/svg" viewBox="0 0 93.05 93.05"><path d="M25.936 43.515h19.49a1.379 1.379 0 000-2.759h-19.49a1.38 1.38 0 00-1.378 1.381 1.374 1.374 0 001.378 1.378z" fill="#0979c6"/><circle cx="61.07" cy="44.736" r="1.113" fill="#0979c6"/><path d="M61.077 55.637c6.02 0 10.898-4.882 10.898-10.901 0-6.023-4.878-10.901-10.898-10.901-6.027 0-10.905 4.882-10.905 10.901.003 6.019 4.881 10.901 10.905 10.901zm-3.54-10.762c-1.467-.336-3.164-1.088-5.268-2.659 1.02-.787 1.628-1.7 2.237-3.063 1.217 1.678 2.391 2.87 3.55 3.718a3.721 3.721 0 011.131-1.138c-.444-1.428-.644-3.257-.336-5.884h4.445c-1.364 2.208-1.929 3.901-2.104 5.347.555.014 1.07.165 1.525.404.998-1.106 2.333-2.197 4.166-3.25.662 1.149 1.768 2.294 2.999 3.862-2.58-.072-4.341.279-5.683.852.243.458.39.973.419 1.528 1.464.336 3.153 1.088 5.264 2.659-1.024.787-1.628 1.707-2.237 3.06-1.217-1.678-2.391-2.87-3.55-3.718a3.645 3.645 0 01-1.131 1.138c.444 1.424.644 3.257.336 5.887h-4.445c1.364-2.208 1.929-3.901 2.104-5.35a3.46 3.46 0 01-1.525-.408c-.995 1.109-2.333 2.197-4.166 3.246-.666-1.149-1.764-2.294-2.999-3.862 2.58.075 4.341-.276 5.683-.852a3.414 3.414 0 01-.415-1.517zm-31.601 4.159h19.49a1.379 1.379 0 000-2.759h-19.49a1.38 1.38 0 000 2.759z" fill="#0979c6"/><path d="M84.06 66.08a44.542 44.542 0 005.411-21.344C89.471 20.027 69.444 0 44.736 0S0 20.027 0 44.736s20.027 44.736 44.736 44.736c7.73 0 14.999-1.961 21.348-5.411l26.967 8.99L84.06 66.08zm-31.648-3.622h-25.37c-.555 0-.988-1.814-1.07-2.834H53.49c-.086 1.012-.527 2.834-1.078 2.834zm16.552 0H57.383c-.551 0-.991-1.814-1.077-2.834h13.728c-.078 1.012-.522 2.834-1.07 2.834zm6.618-3.779H21.43v2.759a1.012 1.012 0 11-2.026 0v-7.483h-4.502v-1.578h4.502v-1.968h-4.502V39.375h4.502v-1.972h-4.502v-1.578h4.502v-6.786h-4.502a1.012 1.012 0 110-2.026h5.519c.562 0 1.013.455 1.013 1.013V31.1h54.152l-.004 27.579z" fill="#0979c6"/></svg>