<svg xmlns="http://www.w3.org/2000/svg" viewBox="0 0 93.05 93.05"><path fill="#85bc23" d="M61.932 66.706V55.25L50.469 66.706z"/><circle cx="44.736" cy="39.961" r="3.822" fill="#85bc23"/><path d="M34.783 53.94c2.162-1.084 4.95-2.419 7.465-3.615l2.412-1.142-1.141 2.417a498.807 498.807 0 01-2.462 5.139c1.195.254 2.419.415 3.683.415 9.498 0 17.196-7.698 17.196-17.193 0-9.498-7.695-17.196-17.196-17.196S27.543 30.46 27.543 39.961c-.004 5.777 2.87 10.859 7.24 13.979zm9.953-19.712a5.733 5.733 0 015.733 5.737 5.73 5.73 0 01-5.733 5.726 5.728 5.728 0 01-5.733-5.726 5.732 5.732 0 015.733-5.737z" fill="#85bc23"/><path d="M84.06 66.08a44.542 44.542 0 005.411-21.344C89.471 20.027 69.444 0 44.736 0S0 20.027 0 44.736s20.027 44.736 44.736 44.736c7.73 0 14.999-1.961 21.348-5.411l26.967 8.99L84.06 66.08zm-20.217 3.489H25.628V19.902h38.215v49.667z" fill="#85bc23"/><path d="M31.744 56.743l5.35 5.361c.047-.054.104-.064.154-.104.551-.551 5.4-10.808 5.4-10.808s-10.253 4.853-10.812 5.404c-.031.046-.045.1-.092.147zm-4.205-1.493v11.456h11.463z" fill="#85bc23"/></svg>