<svg width="32" height="32" fill="none" xmlns="http://www.w3.org/2000/svg"><circle cx="16" cy="16" r="15" stroke="#0979C6" stroke-width="2"/><path d="M23.635 12.61c.11-.351 0-.61-.528-.61h-1.75c-.445 0-.65.222-.76.47 0 0-.891 2.056-2.15 3.389-.408.385-.595.509-.817.509-.11 0-.28-.124-.28-.475V12.61c0-.422-.124-.61-.493-.61h-2.75c-.28 0-.446.197-.446.38 0 .4.63.492.695 1.617v2.441c0 .535-.1.633-.323.633-.595 0-2.038-2.064-2.893-4.427-.173-.458-.342-.644-.79-.644H8.6c-.499 0-.6.222-.6.47 0 .438.594 2.618 2.765 5.498C12.212 19.934 14.25 21 16.103 21c1.114 0 1.25-.236 1.25-.644 0-1.879-.1-2.056.458-2.056.258 0 .704.124 1.743 1.072C20.742 20.497 20.938 21 21.604 21h1.75c.498 0 .75-.236.605-.703-.333-.982-2.581-3.001-2.682-3.136-.258-.315-.184-.456 0-.737.003-.003 2.139-2.849 2.358-3.814z" fill="#0979C6"/></svg>