<svg width="16" height="22" viewBox="0 0 16 22" fill="none" xmlns="http://www.w3.org/2000/svg">
<path fill-rule="evenodd" clip-rule="evenodd" d="M8.14258 0C3.99615 0 0.642578 3.443 0.642578 7.7C0.642578 12.287 5.37829 18.612 7.32829 21.021C7.75686 21.549 8.53901 21.549 8.96758 21.021C10.9069 18.612 15.6426 12.287 15.6426 7.7C15.6426 3.443 12.289 0 8.14258 0ZM8.14258 10.45C6.66401 10.45 5.46401 9.218 5.46401 7.7C5.46401 6.182 6.66401 4.95 8.14258 4.95C9.62115 4.95 10.8211 6.182 10.8211 7.7C10.8211 9.218 9.62115 10.45 8.14258 10.45Z" fill="#0979C6"/>
</svg>
