<svg width="32" height="32" viewBox="0 0 32 32" fill="none" xmlns="http://www.w3.org/2000/svg">
<circle cx="16" cy="16" r="15" stroke="#0979C6" stroke-width="2"/>
<path d="M20.2708 12.6868C20.7991 12.6868 21.2274 12.262 21.2274 11.73C21.2274 11.2016 20.7991 10.7732 20.2708 10.7732C19.7426 10.7732 19.3142 11.2016 19.3142 11.73C19.3142 12.2584 19.739 12.6868 20.2708 12.6868Z" fill="#0979C6"/>
<path fill-rule="evenodd" clip-rule="evenodd" d="M16.0017 11.8978C13.7317 11.8978 11.9005 13.7293 11.9005 16C11.9005 18.2707 13.7317 20.1022 16.0017 20.1022C18.2719 20.1022 20.1031 18.2707 20.1031 16C20.1031 13.7293 18.2719 11.8978 16.0017 11.8978ZM16.0017 18.667C14.5347 18.667 13.3354 17.4709 13.3354 16C13.3354 14.5291 14.5311 13.333 16.0017 13.333C17.4723 13.333 18.6682 14.5291 18.6682 16C18.6682 17.4709 17.4687 18.667 16.0017 18.667Z" fill="#0979C6"/>
<path fill-rule="evenodd" clip-rule="evenodd" d="M23.9438 12.7011C23.8831 11.4194 23.5904 10.2841 22.6517 9.34866C21.7165 8.41325 20.5814 8.1205 19.2999 8.05623C17.9793 7.98126 14.0207 7.98126 12.7001 8.05623C11.4222 8.11693 10.2871 8.40968 9.34833 9.34509C8.40964 10.2805 8.12047 11.4158 8.05623 12.6975C7.98126 14.0185 7.98126 17.9779 8.05623 19.2989C8.11689 20.5806 8.40964 21.7159 9.34833 22.6513C10.2871 23.5867 11.4186 23.8795 12.7001 23.9438C14.0207 24.0187 17.9793 24.0187 19.2999 23.9438C20.5814 23.8831 21.7165 23.5903 22.6517 22.6513C23.5868 21.7159 23.8795 20.5806 23.9438 19.2989C24.0187 17.9779 24.0187 14.0221 23.9438 12.7011ZM22.2376 20.7163C21.9592 21.416 21.4201 21.9551 20.717 22.2372C19.113 22.8735 17.1399 22.546 15.4451 22.5623C14.1228 22.5729 12.5468 22.7345 11.2866 22.2372C10.5869 21.9587 10.048 21.4196 9.76597 20.7163C9.36759 19.7116 9.43672 17.3913 9.44425 16.1693C9.4528 14.6175 9.18594 12.7541 9.76597 11.2837C10.0444 10.5839 10.5834 10.0448 11.2866 9.76279C12.3396 9.34506 14.1563 9.44147 16.0017 9.44147C17.8472 9.44147 19.2757 9.19396 20.717 9.76279C21.4166 10.0413 21.9556 10.5804 22.2376 11.2837C22.8042 12.7132 22.5588 14.4826 22.5588 16C22.5588 17.1639 22.6552 19.6666 22.2376 20.7163Z" fill="#0979C6"/>
</svg>
