<svg width="20" height="20" viewBox="0 0 20 20" fill="none" xmlns="http://www.w3.org/2000/svg">
<path d="M19.6019 14.7224C19.5482 14.5605 19.2062 14.3219 18.5764 14.0073C18.4057 13.9081 18.1626 13.7734 17.848 13.6024C17.5331 13.4315 17.2473 13.2739 16.991 13.1299C16.7343 12.986 16.4938 12.8466 16.269 12.7118C16.2331 12.6848 16.1206 12.6062 15.9317 12.4755C15.7426 12.3451 15.5831 12.2484 15.4524 12.1853C15.322 12.1225 15.1937 12.091 15.0678 12.091C14.8879 12.091 14.6632 12.2193 14.3934 12.4755C14.1236 12.732 13.8761 13.0107 13.6513 13.3124C13.4264 13.6139 13.188 13.8926 12.9363 14.149C12.6843 14.4055 12.4772 14.5337 12.3155 14.5337C12.2343 14.5337 12.133 14.511 12.0117 14.4664C11.8904 14.4214 11.7981 14.3829 11.7348 14.3518C11.672 14.3201 11.5643 14.2573 11.4113 14.1626C11.2579 14.0681 11.1727 14.0163 11.1547 14.0073C9.92221 13.3234 8.86519 12.5407 7.98342 11.6593C7.10195 10.7774 6.31912 9.72045 5.6354 8.48783C5.62642 8.46982 5.57457 8.38431 5.48018 8.23145C5.38564 8.07845 5.32264 7.97064 5.29116 7.90749C5.25968 7.84458 5.22144 7.75231 5.17654 7.63088C5.13163 7.50945 5.10909 7.4083 5.10909 7.32724C5.10909 7.1654 5.23732 6.95837 5.49374 6.70644C5.75012 6.45465 6.02909 6.21614 6.33036 5.99139C6.63188 5.76664 6.91056 5.51915 7.16703 5.24935C7.42341 4.97941 7.5516 4.75461 7.5516 4.57471C7.5516 4.44884 7.52012 4.32051 7.4572 4.1901C7.39424 4.05941 7.29754 3.89993 7.16703 3.71091C7.03648 3.52199 6.95778 3.40963 6.93075 3.37347C6.79594 3.14872 6.65665 2.90809 6.51253 2.65166C6.36841 2.39529 6.21111 2.10951 6.0401 1.79467C5.86923 1.47997 5.73438 1.23697 5.63531 1.06605C5.32061 0.436414 5.08224 0.0943917 4.92026 0.0406021C4.85725 0.0136128 4.76272 0 4.63689 0C4.39385 0 4.07678 0.0449034 3.68546 0.134994C3.294 0.224942 2.98596 0.319287 2.76102 0.418405C2.31118 0.607236 1.8344 1.156 1.33054 2.06452C0.871719 2.91002 0.642334 3.74688 0.642334 4.57447C0.642334 4.81719 0.658074 5.05333 0.689553 5.28295C0.721033 5.51234 0.77728 5.77103 0.858343 6.05898C0.939264 6.34683 1.00454 6.56067 1.05389 6.69992C1.10328 6.83926 1.1955 7.08887 1.33049 7.44886C1.4653 7.80875 1.54636 8.02906 1.57335 8.11003C1.88819 8.99174 2.26155 9.77887 2.69333 10.4717C3.40375 11.6232 4.37324 12.8132 5.60123 14.0413C6.82927 15.2693 8.01906 16.2387 9.17067 16.9494C9.86336 17.3812 10.6508 17.7545 11.5324 18.0696C11.6134 18.0964 11.8337 18.1773 12.1934 18.3125C12.5533 18.4474 12.803 18.5397 12.9424 18.5892C13.0818 18.6387 13.2956 18.704 13.5833 18.7851C13.8715 18.8661 14.1299 18.9224 14.3593 18.9541C14.5889 18.9852 14.825 19.0012 15.0678 19.0012C15.8954 19.0012 16.7323 18.7717 17.5779 18.3129C18.4863 17.8092 19.035 17.3323 19.2239 16.8822C19.3232 16.6575 19.4173 16.3493 19.5073 15.9579C19.5975 15.5666 19.6423 15.2496 19.6423 15.0066C19.6426 14.8802 19.629 14.7859 19.6019 14.7224Z" fill="#0979C6"/>
</svg>
