<svg width="32" height="32" viewBox="0 0 32 32" fill="none" xmlns="http://www.w3.org/2000/svg">
<circle cx="16" cy="16" r="15" stroke="#85BC23" stroke-width="2"/>
<path d="M23.6354 12.6103C23.7453 12.2588 23.6354 12 23.1066 12H21.3572C20.9116 12 20.7067 12.2222 20.5968 12.4697C20.5968 12.4697 19.7057 14.5256 18.4463 15.8588C18.0394 16.2441 17.8523 16.3678 17.6295 16.3678C17.5196 16.3678 17.3503 16.2441 17.3503 15.8925V12.6103C17.3503 12.1884 17.2256 12 16.8573 12H14.1068C13.8276 12 13.6613 12.1969 13.6613 12.3797C13.6613 12.7791 14.291 12.8719 14.3563 13.9969V16.4381C14.3563 16.9725 14.2553 17.0709 14.0326 17.0709C13.4385 17.0709 11.995 15.0066 11.1395 12.6441C10.9673 12.1856 10.798 12 10.3495 12H8.59999C8.10099 12 8 12.2222 8 12.4697C8 12.9084 8.59405 15.0881 10.7653 17.9681C12.2118 19.9341 14.2494 21 16.1028 21C17.2167 21 17.3533 20.7638 17.3533 20.3559C17.3533 18.4772 17.2523 18.3 17.8107 18.3C18.0691 18.3 18.5147 18.4237 19.5542 19.3716C20.7423 20.4966 20.9384 21 21.6037 21H23.3532C23.8522 21 24.1046 20.7638 23.9591 20.2969C23.6264 19.3153 21.378 17.2959 21.277 17.1609C21.0186 16.8459 21.0928 16.7053 21.277 16.4241C21.2799 16.4212 23.4156 13.575 23.6354 12.6103Z" fill="#85BC23"/>
</svg>
